<svg width="24" height="24" viewBox="0 0 24 24" fill="none" xmlns="http://www.w3.org/2000/svg">
<circle cx="12" cy="12" r="12" fill="black"/>
<path d="M18.4371 7.86769C18.2064 7.67345 17.9313 7.40815 17.43 7.34182C16.9597 7.27549 16.4805 7.61186 16.1566 7.83452C15.8328 8.05719 15.2205 8.71097 14.9676 8.90995C14.7147 9.10893 14.0669 9.29369 13.0243 9.96169C11.9817 10.6297 7.89101 13.4343 7.89101 13.4343L8.95583 13.4485L4.20853 16.0589H4.68326L4 16.6132C4 16.6132 4.60339 16.7838 5.10918 16.4427V16.599C5.10918 16.599 10.7616 14.2207 11.853 14.8366L11.1875 15.0451C11.2452 15.0451 12.3189 15.1209 12.3189 15.1209C12.3449 15.3583 12.4197 15.5866 12.5378 15.7897C12.6558 15.9928 12.8144 16.1656 13.0021 16.2958C13.6499 16.7506 13.6632 17.0017 13.6632 17.0017C13.6632 17.0017 13.326 17.1485 13.326 17.3333C13.326 17.3333 13.8229 17.1722 14.2843 17.1864C14.5772 17.1983 14.8676 17.2476 15.1495 17.3333C15.1495 17.3333 15.114 17.1343 14.6659 17.0017C14.2178 16.869 13.7741 16.3479 13.5567 16.0636C13.4236 15.8827 13.3368 15.6679 13.3049 15.4403C13.273 15.2127 13.2971 14.9802 13.3748 14.7656C13.5301 14.3344 14.0714 14.0976 15.1894 13.4817C16.5071 12.7521 16.8088 12.212 16.9952 11.7904C17.1815 11.3687 17.4566 10.5302 17.6119 10.137C17.8071 9.63006 18.0467 9.36002 18.2463 9.19894C18.446 9.03786 19.3333 8.68255 19.3333 8.68255C19.3333 8.68255 18.6545 8.05245 18.4371 7.86769Z" fill="white"/>
</svg>
