<svg width="24" height="24" viewBox="0 0 24 24" fill="none" xmlns="http://www.w3.org/2000/svg">
<circle cx="12" cy="12" r="12" fill="#EA5D9B"/>
<g clip-path="url(#clip0_255_3170)">
<path fill-rule="evenodd" clip-rule="evenodd" d="M11.861 5.33301C14.6282 5.35745 16.7245 7.20448 17.1304 9.6594C17.5894 12.435 15.7058 15.0812 12.9336 15.5592C12.5593 15.6237 12.1769 15.649 11.797 15.6707C11.0269 15.7146 10.248 16.236 10.0673 17.2586C10.0154 17.552 9.9461 17.8423 9.88356 18.1338C9.79267 18.5572 9.43393 18.8086 9.03691 18.7283C8.62657 18.6454 8.38943 18.2781 8.47818 17.847C8.5916 17.2959 8.71317 16.7464 8.8312 16.1962C9.24374 14.2733 9.65731 12.3506 10.068 10.4272C10.1625 9.98446 10.4239 9.7426 10.8166 9.75023C11.2518 9.75869 11.5861 10.1602 11.4963 10.5864C11.2813 11.6076 11.0569 12.6267 10.8368 13.6468C10.7942 13.8441 10.755 14.0421 10.7119 14.2393C10.6945 14.3187 10.7083 14.3586 10.803 14.3479C11.387 14.282 11.9724 14.2274 12.5554 14.1535C14.1074 13.9565 15.4073 12.7211 15.6879 11.1866C16.0627 9.13734 14.7389 7.21976 12.6872 6.83996C10.6399 6.46093 8.62516 7.92638 8.35118 9.99076C8.27578 10.5589 8.32695 11.1132 8.50613 11.6566C8.64482 12.0772 8.4538 12.4946 8.06541 12.618C7.65955 12.747 7.2664 12.5289 7.13056 12.0993C6.2025 9.16453 7.91274 6.16133 10.9177 5.46632C11.2818 5.38212 11.6604 5.36036 11.861 5.33301Z" fill="white"/>
<path fill-rule="evenodd" clip-rule="evenodd" d="M11.3687 17.8792C11.3702 17.3978 11.7379 17.0314 12.2197 17.0313C12.7067 17.0312 13.0842 17.4095 13.0774 17.8908C13.0707 18.3707 12.6986 18.7398 12.2214 18.7401C11.7336 18.7403 11.3671 18.3703 11.3687 17.8792Z" fill="white"/>
</g>
<defs>
<clipPath id="clip0_255_3170">
<rect width="13.4102" height="13.4102" fill="white" transform="translate(5.3335 5.33301)"/>
</clipPath>
</defs>
</svg>
